<?xml version="1.0" encoding="iso-8859-1"?>
<!-- Uploaded to: SVG Repo, www.svgrepo.com, Generator: SVG Repo Mixer Tools -->
<svg height="50px" width="50px" version="1.1" id="Layer_1" xmlns="http://www.w3.org/2000/svg" xmlns:xlink="http://www.w3.org/1999/xlink" 
	 viewBox="0 0 480.1 480.1" xml:space="preserve">
<g transform="translate(0 -540.36)">
	<path style="fill:none;" d="M0.1,780.41c0,132.5,107.5,240,240,240s240-107.5,240-240s-107.5-240-240-240S0.1,647.81,0.1,780.41
		z"/>
	<path style="fill:#172554;" d="M263.3,932.51l-103.1,0.8l50.5-61.7L263.3,932.51z M250.8,936.41h-90.7v70c11,3.9,22.3,7,33.7,9.3
		v-21.3c0-9.2,6.3-16.6,14.2-16.6s14.2,7.4,14.2,16.6v25.3c4.3,0.3,8.7,0.5,13.1,0.6c1.6,0,3.2,0.1,4.7,0.1
		c3.6-0.1,7.2-0.3,10.7-0.5v-83.5H250.8z M119.6,872.61l-51.7,61.1c22.1-0.1,58.5-0.9,86-1.1l51.3-60.1
		C185.9,872.81,153.6,875.01,119.6,872.61z M80.7,959.41c21.5,19.3,46.3,34.5,73.3,44.9v-67.9H80.7V959.41z M474.5,830.51
		c0-0.1,0-0.1,0-0.2C474.5,830.41,474.5,830.41,474.5,830.51L474.5,830.51L474.5,830.51z M3.6,821.61c-1.3-7.2-2.2-14.6-2.8-22.1
		c-0.1-0.9-0.1-1.8-0.2-2.7c0-0.5-0.1-1-0.1-1.5c-0.3-5-0.4-10-0.5-14.9v-0.1l0,0c0-0.1,0-0.2,0-0.2c0.1-7,0.4-13.9,1.1-20.9
		c0.3-3,0.7-6,1.1-9c0.6-5.2,1.4-10.3,2.4-15.4c0.5-2.2,1-4.4,1.5-6.6c1.3-5.9,2.8-11.7,4.5-17.4c0.5-1.4,0.9-2.8,1.4-4.2
		c2.1-6.5,4.4-12.8,7-19.1c0.3-0.6,0.6-1.3,0.9-1.9c3-6.9,6.3-13.7,9.9-20.3l0,0c3.2,13,5.4,29.9,6.2,48.4c4.4-4.1,9.3-6.2,14.3-6.2
		c10.2,0,19.7,8.9,25.9,23.9c5.5-7.1,12-10.9,18.7-11c9.2,0,18,7.3,24.1,19.9l5-16.7l7.8,26.7l16.1-53.6l19,65.2h0.1l8-26.7l7,24.1
		l30.5-5.3l12.5-52.5l10.1,41.5l26.4-110.3l22.3,90.9l9.8-41l6.7,27.5c8.3-20.8,20.1-32.7,32.4-32.8c9,0,17.8,6.3,25.1,18
		c8.2-24.7,21.1-39.2,34.8-39.3c6.7,0,13.2,3.5,19.2,10.2c0.6-17.4,1.9-34.1,3.6-49.2l0,0c14,15.1,26,32,35.6,50.1
		c0.1-0.1,0.2-0.1,0.3-0.2c9.6,18.1,16.9,37.3,21.6,57.2l0,0c4.5,18.4,6.9,37.3,7,56.3c0,1.5-0.1,3.1-0.2,4.6
		c-0.2,6.5-0.6,13-1.3,19.4c-0.2,1.8-0.4,3.6-0.7,5.5c-0.6,4-1.2,7.9-2,11.8L3.6,821.61z M184.1,767.11l5,17l16.1-0.1l39.8-0.3
		l24.4-0.2l0.7-3l-42.5-6.6l-19.3-3l0,0L184.1,767.11z M145.6,623.31l17.6-10.9c-8.9,0.6-17.1,3.7-22.8,8.5c-3.8-1.4-8-2.3-12.3-2.5
		l9.2,5.7c-1.7,2.1-3,4.3-3.7,6.7l7.2-4.5l16.8,10.4C156.1,631.51,151.8,626.71,145.6,623.31z M104.1,612.41l29.6,18.3
		C130.7,620.91,118.5,613.41,104.1,612.41z M157.7,636.71l29.6-18.3C172.7,619.31,160.6,626.91,157.7,636.71z M296.5,899.31
		l103.1,0.8l-50.5-61.7L296.5,899.31z M447.8,900.01c6.1-10.5,11.5-21.4,16-32.6l-23.6-27.9c-34,2.4-66.4,0.2-85.6-0.1l51.3,60.1
		C418.7,899.51,433.5,899.81,447.8,900.01z M446.3,903.21H446h-40.2h-6.1H309l0,0v91.6l0,0h28.5l0,0v-33.7c0-9.2,6.3-16.6,14.2-16.6
		s14.2,7.4,14.2,16.6v23.6C398.8,964.51,426.4,936.51,446.3,903.21z"/>
</g>
</svg>